<svg xmlns="http://www.w3.org/2000/svg" width="1687.543" height="849.449" viewBox="0 0 1687.543 849.449"><g transform="translate(-145.055 -111.945)"><path d="M-16985.941-17208s-.363-3.4,1.883-4.9,7.1-1.088,7.1-1.088l204.807-.646s5.4.625,13.373-1.723,18.521-7.668,18.521-7.668l203.184-85.918s4.105-2.047,6.857-1.076a7.054,7.054,0,0,1,3.8,4.082l39.223,95.512s3.109,6.172,2.381,9.127-5.467,4.178-5.467,4.178l-208.781,86.465a33.928,33.928,0,0,1-11.6,3.836,116.528,116.528,0,0,1-16.135.523l-250.324,1.785s-4.9.186-7.291-2.365-1.926-7.766-1.926-7.766Z" transform="translate(17647 17736)" fill="#ebede6"/><path d="M-16985.941-17285.7a7.822,7.822,0,0,1,1.342-2.779,10.116,10.116,0,0,1,2.586-2.107l69.264-16.285,322.943-136.037a4.922,4.922,0,0,1,3.736,0,16.029,16.029,0,0,1,3.545,3.545l42.15,102.219a7.627,7.627,0,0,1,.48,3.928,5.452,5.452,0,0,1-2.205,2.779s-207.316,87-221.2,92.447c0,0-1.629.238-3.449.479s-3.832.479-3.832.479l-209.131,1.15a8.189,8.189,0,0,1-4.217-1.246,6.179,6.179,0,0,1-2.012-3.832Z" transform="translate(17647 17736)" fill="#ebede6"/><path d="M-16570.547-17443.477s-1.078-3.594,0-6.037,4.311-3.736,4.311-3.736l394.346-168.242s7.142-3.633,12.344-2.246,7.044,7.277,7.044,7.277l116.535,213.711s4.935,5.252,4.125,9.645c-.679,3.682-5.931,5.668-5.931,5.668l-96.457,39.895s-6.252,3.15-9.58,2.107a7.129,7.129,0,0,1-4.406-3.736s-17.4-34.771-31.776-58.5c-6.741-11.129-11.63-21.85-17.229-28.477-5.943-7.033-12.181-9.246-12.181-9.246a6.635,6.635,0,0,1-2.722-2.437,5.063,5.063,0,0,1,0-3.346l10.734-37.355a8.725,8.725,0,0,0,.434-4.875c-.578-2.543-4.932-2.664-4.932-2.664l-5.212-1.445s-2.644-1.271-3.915,0a9.86,9.86,0,0,0-1.928,3.713l-11.167,35.883a8.033,8.033,0,0,1-3.061,3.4,11.586,11.586,0,0,1-5.046.963s-3.964-.109-7.2,0a48.385,48.385,0,0,0-6.989.895,50.243,50.243,0,0,0-6.048,1.77c-6.482,2.387-22.841,9.2-70.364,29.408-67.128,28.549-191.95,83.02-191.95,83.02s-3.443.852-5.74,0a7.632,7.632,0,0,1-3.572-3.4Z" transform="translate(17647 17736)" fill="#ebede6"/><path d="M-16460.631-17186.549l-1.893-6.525,4.84-3.156,167.326-70.93s3.606-2.209,5.816-1.156,3.353,5.27,3.353,5.27,10.158,17.029,8.526,31.711-15.52,25.77-15.52,25.77l-46.367,46.846-73.959,76.354s-2.564,3.723-5.459,3.354-3.641-4.119-3.641-4.119Z" transform="translate(17647 17736)" fill="#ebede6"/><path d="M-16491-16977s-3.7,3.426-3.262,6.021,4.791,3.094,4.791,3.094,7.43-.6,38.895,5.926,87.18,19.447,87.18,19.447,4.666,1.959,8.718.959,6.61-5.27,6.61-5.27l219.558-223.107,7.366-13.469,3.789-16.207-1.264-38.1-1.473-17.469-6.735-15.154-27.151-45.883s-1.864-4.566-4.969-5.566-7.449,1.566-7.449,1.566l-95.554,39.779s-5.525,1.629-7.367,4.734,1.637,6.8,1.637,6.8,6.837,9.451,9.006,20.406,2.7,18.178-1.725,30.752-18.969,25.482-18.969,25.482Z" transform="translate(17647 17736)" fill="#ebede6"/><path d="M-16323.066-16941.172s-2.458,2.076-1.817,4.234,3.446,2.855,3.446,2.855l126.205,28.084a15.936,15.936,0,0,0,6.416,0,12.2,12.2,0,0,0,5.748-3.387l189.679-194.248s10.377-8.99,15.218-20.408,4.146-25.264,4.146-25.264l-.211-124.389-1.474-16.838-5.051-12.207-40.621-71.561a5.246,5.246,0,0,0-4.115-2.941,10.454,10.454,0,0,0-5.748,1.531l-102.7,42.057a5.729,5.729,0,0,0-2.586,3.449c-.632,2.42,1.628,5.748,1.628,5.748l35.645,67.6,1.263,65.877-6.314,22.1-17.259,19.574Z" transform="translate(17647 17736)" fill="#ebede6"/><path d="M-16175.329-16898.238a12.75,12.75,0,0,0-2.012,3.832,18.689,18.689,0,0,0-.633,4.824v82.084s.589,5.4,3.22,5.826,6.8-5.174,6.8-5.174l350.055-358.1a8.573,8.573,0,0,0,3.449-5.174c.484-3.193-3.065-7.76-3.065-7.76l-125.4-226.375s-1.92-4.771-5.077-6.246-7.377.785-7.377.785l-51.278,21.105s-2.946,1.787-2.946,4.84,4,8,2.946,7.367,38.1,67.982,38.1,67.982a48.222,48.222,0,0,1,6.956,15.389c2.157,8.84,1.674,19.971,1.674,19.971l.421,115.34s1.41,19.518-2.957,33.777a56.042,56.042,0,0,1-14.513,23.26Z" transform="translate(17647 17736)" fill="#ebede6"/><path d="M-16022.435-17403.977s2.135,4.084,5.081,5.084,6.705-1.084,6.705-1.084l50.093-19.785s3.743-1.658,4.322-4.709-2.007-7.5-2.007-7.5l-73.867-131.986-3.376-5.453-38.307-22.941a12.375,12.375,0,0,0-5.643-2.455,6.1,6.1,0,0,0-4.886,1.438l-27.111,14.754a6.682,6.682,0,0,0-3.449,3.928c-.947,2.895,1.342,6.131,1.342,6.131Z" transform="translate(17647 17736)" fill="#ebede6"/><path d="M1.8,8.053c1.437-3.01,5.746-1.914,5.746-1.914l101.109,35a10.862,10.862,0,0,1,4.516,3.143,9.14,9.14,0,0,1,1.3,5.039l2.391,144.473s.232,5.13-2.063,7.432S107.688,203,107.688,203H17.395s-6.361.96-9.3-1.775-1.914-7.934-1.914-7.934L.432,12.979A11.72,11.72,0,0,1,1.8,8.053Z" transform="translate(225 302)" fill="#ebede6"/><path d="M2.857,5.135c1.988-1.725,6.514-.863,6.514-.863L281.992,95.92s3.479.863,5.146,2.836,1.438,5.145,1.438,5.145l1.135,45.547a6.668,6.668,0,0,1-2.664,4.023c-2.241,1.523-6.016,1.105-6.016,1.105L11.188,156.207s-5.2.761-7.76-1.053S1.033,149.6,1.033,149.6L1.42,11.17S.87,6.859,2.857,5.135Z" transform="translate(351 347)" fill="#ebede6"/><path d="M-16516-17310.391s-1.346-4.062,0-7.047,5.385-4.889,5.385-4.889l259.966-106.5s16.723-5.1,26.586.682a54.989,54.989,0,0,1,15.973,14.885l41.576,71.564s2.21,3.094,1.054,5.939-6.286,4.029-6.286,4.029l-291.56,123.584s-4.307,1.334-7.062,0-3.963-5.336-3.963-5.336Z" transform="translate(17647 17736)" fill="#ebede6"/><path d="M9.557,1.365l258.889-.6A76.123,76.123,0,0,0,286.131-1.1a150.014,150.014,0,0,0,18.682-6.477l90.541-37.486s3.487-1.121,5.854,0,3.768,4.164,3.768,4.164l20.2,49.289s.7.9.207,3.432-3.137,1.857-4.094,3.545a3.653,3.653,0,0,0,0,3.379l2.941,7.225a2.782,2.782,0,0,0,1.961,1.832,4.923,4.923,0,0,0,2.813-.49L474.75,7.857a4.733,4.733,0,0,0,2.092-2.867c.364-1.862-.777-4.615-.777-4.615l-1.908-3.869s-.933-2.213-2.633-2.375a7.517,7.517,0,0,0-3.426.658L444.57,5.35a6.472,6.472,0,0,1-4.941,0c-2.955-1.052-3.117-2.8-3.117-2.8L415.8-45.062s-1.821-3.3-.971-5.48,4.371-3.238,4.371-3.238l90.02-38.209s3.4-1.5,5.18,0,1.018,1.569,2.43,4.047c1.779,5.182,24.932,61.2,27.361,66.381l18.781,47.113c0,.43,1.446,2.694,1.02,5.773-.162,1.226-1.778,1.79-3.355,3.725-9.224,11.311-27.075,30.11-44.787,48.234-15.184,15.537-29.118,30.882-36.49,37.361a18.863,18.863,0,0,1-6.244,3.506s-38.816-4.369-94.551-7.285c-37.784-1.977-83.567-2.472-129.773-3.615-114.089-2.822-238.268-4.271-238.268-4.271-3.907,0-5.365-1.021-5.365-4.887L4.295,7.049C4.295,3.183,5.65,1.365,9.557,1.365Z" transform="translate(655.684 640.482)" fill="#ebede6"/><path d="M12.914.445,541.793-.41s12.791-.07,22.436-3.832A64.377,64.377,0,0,0,581.74-15.186l51.562-54.1a10.2,10.2,0,0,1,4.709-2.965,13.828,13.828,0,0,1,6.114.426L783.12-42s3.8.384,5.824,2.363,2.268,5.555,2.268,5.555l.117,91.772c0,3.846-.322,5.385-8.029,5.385L12.914,65.854c-7.708,0-9.066-1.5-9.066-5.342V5.789C3.848,1.943,5.206.445,12.914.445Z" transform="translate(657.186 890.281)" fill="#ebede6"/><path d="M8.205-.228l395.3-1.278c3.99,0,7.225,4.635,7.225,8.5v97.245a7.426,7.426,0,0,1-7.225,7.359l-390.3,1.528c-3.99,0-6.615-3.416-6.615-7.277L2.178,6.218C2.178,2.356,4.215-.228,8.205-.228Z" transform="translate(231.266 520.877)" fill="#ebede6"/><path d="M8.945.4,400.1-1.506c3.956,0,7.164,4.426,7.164,8.115V99.479a7.225,7.225,0,0,1-7.164,7.028L13.114,107.967c-3.956,0-6.559-3.262-6.559-6.95L4.338,6.129C4.338,2.441,4.989.4,8.945.4Z" transform="translate(234.734 643.506)" fill="#ebede6"/><path d="M6.652,2.033,59.246,18.8c3.866,0,4.887,4.659,4.887,8.525L85.154,605.91c0,3.866-.829,7.285-4.7,7.285l-54.4,1.943c-3.866,0-4.857-3.257-4.857-7.123L2.055,6.631C2.055,2.765,2.786,2.033,6.652,2.033Z" transform="translate(143 269)" fill="#ebede6"/><path d="M7.34-1.225l55.7-1.457c.659,0,4.371,3.1,4.371,6.963L69.35,59.328c0,3.866-5.655,6.637-6.314,6.637L9.121,67.584a7.006,7.006,0,0,1-4.533-6.152L2.517,4.281C2.517.415,6.681-1.225,7.34-1.225Z" transform="translate(161.91 893.811)" fill="#ebede6"/><path d="M14.7-.57S143.027,1,254.115,4.9,407.988,8.854,501.223,20.756c72.7,12.143,108.5,21.57,122.548,24.367,3.138,1.44,1.933,4.7,1.933,5.535L582.182,94.922s-9.578,10.26-21.07,13.68-162.724,1.643-166.631,1.643l-381.5,3c-3.907,0-6.477-3.419-6.477-7.285V3.537C6.5-.329,10.794-.57,14.7-.57Z" transform="translate(652.229 767.719)" fill="#ebede6"/><path d="M8.079-.227,395.1-1.506c3.907,0,7.074,4.64,7.074,8.506v97.348a7.357,7.357,0,0,1-7.074,7.367L12.977,113.244c-3.907,0-6.477-3.419-6.477-7.285L2.178,6.227C2.178,2.361,4.172-.227,8.079-.227Z" transform="translate(239.828 768.506)" fill="#ebede6"/><path d="M8.018-.227,391-1.506c3.866,0,7,4.64,7,8.506V58a7,7,0,0,1-7,7L9.4,65.881c-3.866,0-5.23-3.357-5.23-7.223L2.178,6.227C2.178,2.361,4.152-.227,8.018-.227Z" transform="translate(244 892)" fill="#ebede6"/><path d="M-13451.762-22118.715v-86.307l10.212-10.461,69.493,15.068Z" transform="translate(14925 23047)" fill="#e6e7cf" stroke="#fff" stroke-width="1" opacity="0.5"/><path d="M-13658.855-22108.578v11.188l-600.01,1.566v-11Z" transform="translate(14925 23047)" fill="#f2f2e6" stroke="#fff" stroke-width="1" opacity="0.5"/></g></svg>